<svg xmlns="http://www.w3.org/2000/svg" version="1.1" viewBox="0 0 33 33" x="0px" y="0px">
    <title>collaps</title>
    <path d="M26.25 20.25v4.75c0 0.414-0.336 0.75-0.75 0.75h-18c-0.414 0-0.75-0.336-0.75-0.75v-18c0-0.414 0.336-0.75 0.75-0.75h4.75c0.414 0 0.75 0.336 0.75 0.75s-0.336 0.75-0.75 0.75h-4v16.5h16.5v-4c0-0.414 0.336-0.75 0.75-0.75s0.75 0.336 0.75 0.75zM12.29 13l0.040 6.46c0.003 0.412 0.338 0.745 0.75 0.745 0 0 0 0 0 0h6.42c0.414 0 0.75-0.336 0.75-0.75s-0.336-0.75-0.75-0.75h-4.5l11-11.185c0.134-0.136 0.216-0.322 0.216-0.527 0-0.415-0.336-0.751-0.751-0.751-0.209 0-0.399 0.086-0.535 0.224l-11.11 11.32-0.030-4.785c0-0.002 0-0.003 0-0.005 0-0.409-0.331-0.74-0.74-0.74-0.005 0-0.011 0-0.016 0-0.41 0.003-0.741 0.335-0.744 0.745z"/>
<!--    <text x="0" y="47" fill="#000000" font-size="5px" font-weight="bold"-->
<!--          font-family="'Helvetica Neue', Helvetica, Arial-Unicode, Arial, Sans-serif">Created by Rineesh-->
<!--    </text>-->
<!--    <text x="0" y="52" fill="#000000" font-size="5px" font-weight="bold"-->
<!--          font-family="'Helvetica Neue', Helvetica, Arial-Unicode, Arial, Sans-serif">from the Noun Project-->
<!--    </text>-->
</svg>